#Unknown ASF file
:ROOT_YZX
:FOOT_3DOF
:FULLY-SPECIFIED
:DEGREES
389
root 1.40013 17.3673 35.6589 1.68343 -178.806 7.04745
lfemur 13.966 5.17955 -28.1927
ltibia 12.6799
lfoot -13.3776 0 -11.2578
ltoes -20.3688
rfemur -33.2985 -3.17959 13.0753
rtibia 23.7133
rfoot -9.50841 0 -7.41638
rtoes -20.1604
lowerback 10.5513 -2.57167 -9.85262
upperback 0.535474 -4.56148 2.74979
thorax -4.36531 -2.08721 9.1317
lowerneck -14.2931 -4.50989 -14.9404
upperneck 15.272 -5.19074 13.8799
head 7.82658 -2.02886 6.59779
lclavicle -3.83654e-014 -1.19271e-014
lhumerus -20.8079 -3.63632 82.9575
lradius 40.6485
lwrist 2.53238
lhand -15.0498 28.2674
lfingers 7.12502
lthumb 11.1167 57.9529
rclavicle -3.83654e-014 -1.19271e-014
rhumerus -41.6951 -13.7788 -71.2923
rradius 27.2265
rwrist 2.39223
rhand -22.0281 13.8267
rfingers 7.12502
rthumb 4.38161 -16.108
390
root 1.50406 17.393 35.0414 1.75574 -177.877 7.03906
lfemur 17.5484 3.21377 -27.8297
ltibia 9.27987
lfoot -9.88789 0 -10.8822
ltoes -24.0111
rfemur -33.5984 -1.87587 12.8661
rtibia 27.4
rfoot -7.02954 0 -6.94133
rtoes -16.5925
lowerback 10.7556 -2.68957 -9.91598
upperback 0.716935 -4.75044 2.88833
thorax -4.22634 -2.20322 9.34764
lowerneck -15.2672 -5.02324 -15.1343
upperneck 15.1381 -5.78107 14.0853
head 8.06563 -2.27919 6.62395
lclavicle 1.31198e-014 3.02153e-014
lhumerus -20.4412 -3.08315 83.6272
lradius 42.1432
lwrist 1.85237
lhand -15.1604 28.2034
lfingers 7.12502
lthumb 11.0101 57.8946
rclavicle 1.31198e-014 3.02153e-014
rhumerus -42.2906 -16.5642 -69.5977
rradius 24.6926
rwrist 5.20816
rhand -21.4752 13.3699
rfingers 7.12502
rthumb 4.91553 -16.5531
391
root 1.59542 17.4707 34.4061 2.13688 -178.602 5.07965
lfemur 18.1063 2.22779 -25.7283
ltibia 11.1305
lfoot -7.44865 0 -10.0972
ltoes -29.192
rfemur -33.3917 -0.297917 15.2078
rtibia 29.0651
rfoot -4.04031 0 -6.31352
rtoes -15.9053
lowerback 10.9118 -2.43944 -8.03982
upperback 0.591627 -4.19172 3.54612
thorax -4.65742 -1.93448 8.94384
lowerneck -15.5254 -5.39869 -15.231
upperneck 15.0593 -6.21914 13.898
head 8.15395 -2.50707 6.51128
lclavicle 1.47101e-014 -6.67916e-014
lhumerus -21.2698 -2.29944 84.7577
lradius 42.4715
lwrist 3.00226
lhand -16.8332 27.4326
lfingers 7.12502
lthumb 9.39634 57.2031
rclavicle 1.47101e-014 -6.67916e-014
rhumerus -43.2669 -18.4057 -68.0209
rradius 22.6201
rwrist 7.7684
rhand -21.4151 12.3031
rfingers 7.12502
rthumb 4.97352 -17.6185
392
root 1.68627 17.5265 33.7198 2.16037 -179.137 4.89251
lfemur 18.199 0.919521 -25.5326
ltibia 14.309
lfoot -3.21834 0 -10.0188
ltoes -33.0857
rfemur -32.0847 -0.667434 16.1265
rtibia 31.0706
rfoot -3.90965 0 -4.98349
rtoes -12.578
lowerback 10.6481 -2.20618 -7.76297
upperback 0.489725 -3.81981 3.56514
thorax -4.71221 -1.74515 8.74489
lowerneck -15.2416 -5.56065 -15.0135
upperneck 15.0526 -6.43369 13.3362
head 8.1071 -2.65905 6.24445
lclavicle 7.95139e-015 1.59028e-015
lhumerus -23.5537 -2.19315 85.8863
lradius 43.2839
lwrist 4.24321
lhand -17.2252 27.0679
lfingers 7.12502
lthumb 9.01801 56.8551
rclavicle 7.95139e-015 1.59028e-015
rhumerus -44.7495 -20.2828 -66.2048
rradius 21.0977
rwrist 10.1562
rhand -20.6958 13.2296
rfingers 7.12502
rthumb 5.66805 -16.6746
393
root 1.80731 17.6249 33.0118 1.82807 -178.838 3.47903
lfemur 16.7706 -0.72231 -23.5376
ltibia 19.8455
lfoot 3.03027 0 -11.0181
ltoes -33.2626
rfemur -29.8633 -0.697874 18.3402
rtibia 32.1
rfoot -3.59879 0 -4.26645
rtoes -5.64234
lowerback 10.7064 -2.15495 -6.31238
upperback 0.424495 -3.58506 3.85282
thorax -4.93044 -1.65327 8.19828
lowerneck -15.1384 -5.89431 -15.4979
upperneck 15.3974 -6.87263 13.6702
head 8.30391 -2.86253 6.3995
lclavicle 4.03533e-014 9.54166e-015
lhumerus -25.4079 -2.74157 86.9676
lradius 43.1043
lwrist 5.91904
lhand -9.21519 39.883
lfingers 7.12502
lthumb 16.7393 69.1813
rclavicle 4.03533e-014 9.54166e-015
rhumerus -46.0011 -20.4503 -66.0397
rradius 20.904
rwrist 10.1317
rhand -20.2853 12.7197
rfingers 7.12502
rthumb 6.06435 -17.1735
